# xmcd CD database file
#
# Track frame offsets:
#	150
#	28300
#	51659
#	74155
#	115166
#	153777
#	196777
#	243020
#
# Disc length: 3482 seconds
#
# Revision: 0
# Processed by: cddbd v1.5.2PL0 Copyright (c) Steve Scherf et al.
# Submitted via: jetAudio 7
#
DISCID=6d0d9808
DTITLE=음악가 없음 - 앨범 없음
DYEAR=1900
DGENRE=장르 없음
TTITLE0=트랙 1
TTITLE1=트랙 2
TTITLE2=트랙 3
TTITLE3=트랙 4
TTITLE4=트랙 5
TTITLE5=트랙 6
TTITLE6=트랙 7
TTITLE7=트랙 8
EXTD=
EXTT0=
EXTT1=
EXTT2=
EXTT3=
EXTT4=
EXTT5=
EXTT6=
EXTT7=
PLAYORDER=
